# xmcd CD database file
#
# Track frame offsets:
#	150
#	19836
#	37418
#	66763
#	81816
#	101673
#	130546
#	171866
#	209193
#
# Disc length: 3490 seconds
#
# Revision: 0
# Processed by: cddbd v1.5.1PL0 Copyright (c) Steve Scherf et al.
# Submitted via: CDex 1.51
#
DISCID=800da009
DTITLE=David And Steve Gordon - Garden Of Serenity III - Garden Of Serenity III
DYEAR=2004
DGENRE=New Age
TTITLE0=Sacred Grove
TTITLE1=Peaceful Fountain
TTITLE2=Spring Of Dreams
TTITLE3=In The Summer House
TTITLE4=Breath Of Evening
TTITLE5=Secret Pathway
TTITLE6=Reflections
TTITLE7=Flowing Grace
TTITLE8=Mirror Pool
EXTD=YEAR: 2004
EXTT0=
EXTT1=
EXTT2=
EXTT3=
EXTT4=
EXTT5=
EXTT6=
EXTT7=
EXTT8=
PLAYORDER=
